<svg width="1920" height="1080" viewBox="0 0 1920 1080" fill="none" xmlns="http://www.w3.org/2000/svg">
<g clip-path="url(#clip0_2020_1126)">
<rect width="1920" height="1080" fill="white"/>
<path d="M-519.938 1187.28H2438.94M-444.453 1146.21H2363.45M-376.302 1109.14H2295.3M-314.451 1075.5H2233.46M-258.083 1044.83H2177.08M-206.489 1016.77H2125.49M-159.091 990.988H2078.09M-115.393 967.214H2034.4M-74.9862 945.239H1993.99M-37.504 924.85H1956.5M-2.63942 905.886H1921.64M29.8633 888.206H1889.14M60.243 871.674H1858.76M88.7042 856.199H1830.3M115.417 841.668H1803.59M1676.1 828L2327.57 1233M1573.73 828L2132.13 1233M1471.35 828L1936.69 1233M1368.98 828L1741.25 1233M1266.61 828L1545.81 1233M1164.25 828L1350.38 1233M1061.87 828L1154.94 1233M959.5 828V1233M857.132 828L764.066 1233M754.763 828L568.623 1233M652.386 828L373.189 1233M550.018 828L177.754 1233M447.65 828L-17.6886 1233M345.282 828L-213.123 1233M242.905 828L-408.566 1233M140.536 828H1778.46L2523 1233H-604L140.536 828Z" stroke="url(#paint0_radial_2020_1126)" stroke-miterlimit="10"/>
<path d="M-519.938 -45.3888H2438.94M-444.453 -4.428H2363.45M-376.302 32.556H2295.3M-314.451 66.1152H2233.46M-258.083 96.7039H2177.08M-206.489 124.696H2125.49M-159.091 150.415H2078.09M-115.393 174.129H2034.4M-74.9862 196.05H1993.99M-37.504 216.389H1956.5M-2.63942 235.307H1921.64M29.8633 252.943H1889.14M60.243 269.434H1858.76M88.7042 284.87H1830.3M115.417 299.365H1803.59M1676.1 313L2327.57 -91M1573.73 313L2132.13 -91M1471.35 313L1936.69 -91M1368.98 313L1741.25 -91M1266.61 313L1545.81 -91M1164.25 313L1350.38 -91M1061.87 313L1154.94 -91M959.5 313V-91M857.132 313L764.066 -91M754.763 313L568.623 -91M652.386 313L373.189 -91M550.018 313L177.754 -91M447.65 313L-17.6886 -91M345.282 313L-213.123 -91M242.905 313L-408.566 -91M140.536 313H1778.46L2523 -91H-604L140.536 313Z" stroke="url(#paint1_radial_2020_1126)" stroke-miterlimit="10"/>
</g>
<defs>
<radialGradient id="paint0_radial_2020_1126" cx="0" cy="0" r="1" gradientUnits="userSpaceOnUse" gradientTransform="translate(959.807 928.308) rotate(89.9756) scale(452.692 845.297)">
<stop/>
<stop offset="1" stop-opacity="0"/>
</radialGradient>
<radialGradient id="paint1_radial_2020_1126" cx="0" cy="0" r="1" gradientUnits="userSpaceOnUse" gradientTransform="translate(959.807 150.853) rotate(84.4513) scale(394.998 738.979)">
<stop/>
<stop offset="1" stop-opacity="0"/>
</radialGradient>
<clipPath id="clip0_2020_1126">
<rect width="1920" height="1080" fill="white"/>
</clipPath>
</defs>
</svg>
