<svg width="1520" height="889" viewBox="0 0 1520 889" fill="none" xmlns="http://www.w3.org/2000/svg">
<g clip-path="url(#clip0_181_574)">
<rect width="1520" height="889" fill="white"/>
<mask id="mask0_181_574" style="mask-type:alpha" maskUnits="userSpaceOnUse" x="-289" y="-238" width="1956" height="1440">
<path d="M799.16 303.828C799.16 451.088 701.796 570.465 581.69 570.465C461.584 570.465 -288.822 53.9679 -288.822 -93.292C-288.822 -240.552 789.366 -37.8213 909.471 -37.8213C1029.58 -37.8213 799.16 156.568 799.16 303.828Z" fill="url(#paint0_linear_181_574)"/>
<path d="M883.625 934.853C883.625 1082.11 786.26 1201.49 666.155 1201.49C546.049 1201.49 -123.042 1167.17 -123.042 1019.91C-123.042 872.645 -73.5837 523.821 46.5219 523.821C166.627 523.821 883.625 787.593 883.625 934.853Z" fill="url(#paint1_radial_181_574)"/>
<path d="M1130.32 304.232C1454.39 596.92 1304.69 449.832 1583.03 442.422C1626.7 450.833 1700.82 451.233 1648.01 385.542C1582 303.427 1603.27 245.429 1520.77 155.965C1438.27 66.5012 1388.02 -24.3926 1263.47 -166.683C1138.91 -308.973 1129.33 -191.679 988.908 -202.798C848.488 -213.917 912.534 -196.26 718.79 10.1974C525.046 216.654 806.255 11.5432 1130.32 304.232Z" fill="#D9D9D9"/>
<path d="M824.375 764.614C390.695 815.672 599.971 799.913 422.212 1014.23C387.123 1041.55 337.998 1097.06 422.212 1100.59C527.48 1105 557.107 1159.21 678.764 1156.06C800.421 1152.91 901.908 1174.97 1091.01 1174.97C1280.12 1174.97 1198.17 1090.5 1299.03 992.169C1399.88 893.835 1344.41 930.395 1316.68 648.629C1288.94 366.864 1258.05 713.555 824.375 764.614Z" fill="#D9D9D9"/>
</mask>
<g mask="url(#mask0_181_574)">
<line x1="8.70459" y1="609.548" x2="1520.28" y2="609.548" stroke="black" stroke-opacity="0.09" stroke-width="1.2607"/>
<line x1="8.70459" y1="286.81" x2="1520.28" y2="286.81" stroke="black" stroke-opacity="0.09" stroke-width="1.2607"/>
<line x1="8.70459" y1="448.178" x2="1520.28" y2="448.178" stroke="black" stroke-opacity="0.09" stroke-width="1.2607"/>
<line x1="8.70459" y1="770.916" x2="1520.28" y2="770.916" stroke="black" stroke-opacity="0.09" stroke-width="1.2607"/>
<line x1="8.70459" y1="125.439" x2="1520.28" y2="125.439" stroke="black" stroke-opacity="0.09" stroke-width="1.2607"/>
<line x1="8.70459" y1="528.863" x2="1520.28" y2="528.863" stroke="black" stroke-opacity="0.09" stroke-width="1.2607"/>
<line x1="8.70459" y1="851.601" x2="1520.28" y2="851.601" stroke="black" stroke-opacity="0.09" stroke-width="1.2607"/>
<line x1="8.70459" y1="206.125" x2="1520.28" y2="206.125" stroke="black" stroke-opacity="0.09" stroke-width="1.2607"/>
<line x1="8.70459" y1="367.493" x2="1520.28" y2="367.493" stroke="black" stroke-opacity="0.09" stroke-width="1.2607"/>
<line x1="8.70459" y1="690.233" x2="1520.28" y2="690.233" stroke="black" stroke-opacity="0.09" stroke-width="1.2607"/>
<line x1="8.70459" y1="44.7544" x2="1520.28" y2="44.7544" stroke="black" stroke-opacity="0.09" stroke-width="1.2607"/>
<line x1="55.98" y1="-64.2949" x2="55.9799" y2="1103.11" stroke="black" stroke-opacity="0.09" stroke-width="1.2607"/>
<line x1="701.461" y1="-64.2949" x2="701.461" y2="1103.11" stroke="black" stroke-opacity="0.09" stroke-width="1.2607"/>
<line x1="378.72" y1="-64.2952" x2="378.72" y2="1103.11" stroke="black" stroke-opacity="0.09" stroke-width="1.2607"/>
<line x1="1024.2" y1="-64.2949" x2="1024.2" y2="1103.11" stroke="black" stroke-opacity="0.09" stroke-width="1.2607"/>
<line x1="1346.94" y1="-64.2949" x2="1346.94" y2="1103.11" stroke="black" stroke-opacity="0.09" stroke-width="1.2607"/>
<line x1="217.35" y1="-64.2949" x2="217.35" y2="1103.11" stroke="black" stroke-opacity="0.09" stroke-width="1.2607"/>
<line x1="862.827" y1="-64.2949" x2="862.827" y2="1103.11" stroke="black" stroke-opacity="0.09" stroke-width="1.2607"/>
<line x1="540.09" y1="-64.2949" x2="540.09" y2="1103.11" stroke="black" stroke-opacity="0.09" stroke-width="1.2607"/>
<line x1="1185.57" y1="-64.2952" x2="1185.57" y2="1103.11" stroke="black" stroke-opacity="0.09" stroke-width="1.2607"/>
<line x1="1508.31" y1="-64.2949" x2="1508.31" y2="1103.11" stroke="black" stroke-opacity="0.09" stroke-width="1.2607"/>
<line x1="136.667" y1="-64.2949" x2="136.667" y2="1103.11" stroke="black" stroke-opacity="0.09" stroke-width="1.2607"/>
<line x1="782.144" y1="-64.2952" x2="782.143" y2="1103.11" stroke="black" stroke-opacity="0.09" stroke-width="1.2607"/>
<line x1="459.403" y1="-64.2949" x2="459.403" y2="1103.11" stroke="black" stroke-opacity="0.09" stroke-width="1.2607"/>
<line x1="1104.88" y1="-64.2949" x2="1104.88" y2="1103.11" stroke="black" stroke-opacity="0.09" stroke-width="1.2607"/>
<line x1="1427.62" y1="-64.2949" x2="1427.62" y2="1103.11" stroke="black" stroke-opacity="0.09" stroke-width="1.2607"/>
<line x1="298.038" y1="-64.2949" x2="298.038" y2="1103.11" stroke="black" stroke-opacity="0.09" stroke-width="1.2607"/>
<line x1="943.514" y1="-64.2949" x2="943.514" y2="1103.11" stroke="black" stroke-opacity="0.09" stroke-width="1.2607"/>
<line x1="620.773" y1="-64.2949" x2="620.773" y2="1103.11" stroke="black" stroke-opacity="0.09" stroke-width="1.2607"/>
<line x1="1266.25" y1="-64.2949" x2="1266.25" y2="1103.11" stroke="black" stroke-opacity="0.09" stroke-width="1.2607"/>
<g opacity="0.7">
<rect x="862.885" y="770.859" width="80.2262" height="80.2262" fill="#C8181A" fill-opacity="0.36"/>
<rect x="459.462" y="770.859" width="80.2262" height="80.2262" fill="#C8181A" fill-opacity="0.25"/>
<rect x="1186.08" y="206.983" width="80.2262" height="79.0801" fill="#C8181A" fill-opacity="0.11"/>
<rect x="539.688" y="126.757" width="80.2262" height="79.0801" fill="#C8181A" fill-opacity="0.31"/>
<rect x="1104.71" y="287.209" width="80.2262" height="79.0801" fill="#C8181A" fill-opacity="0.11"/>
<rect x="458.316" y="206.983" width="80.2262" height="79.0801" fill="#C8181A" fill-opacity="0.31"/>
<rect x="1104.71" y="206.983" width="80.2262" height="79.0801" fill="#C8181A" fill-opacity="0.11"/>
<rect x="458.316" y="126.757" width="80.2262" height="79.0801" fill="#C8181A" fill-opacity="0.31"/>
<rect x="379.236" y="770.859" width="80.2262" height="80.2262" fill="#C8181A" fill-opacity="0.25"/>
<rect x="379.236" y="851.085" width="80.2262" height="81.3723" fill="#C8181A" fill-opacity="0.25"/>
<rect x="217.637" y="690.633" width="80.2262" height="80.2262" fill="#C8181A" fill-opacity="0.25"/>
<rect x="1024.48" y="45.3845" width="80.2262" height="80.2262" fill="#C8181A" fill-opacity="0.61"/>
<rect x="944.258" y="-46.3025" width="80.2262" height="80.2262" fill="#C8181A" fill-opacity="0.61"/>
<rect x="943.381" y="44.2385" width="80.2262" height="81.3723" fill="#C8181A" fill-opacity="0.61"/>
<rect x="217.637" y="124.465" width="81.3723" height="82.5184" fill="#C8181A" fill-opacity="0.24"/>
<rect x="136.265" y="44.2385" width="81.3723" height="80.2262" fill="#C8181A" fill-opacity="0.24"/>
<rect x="56.0391" y="45.3845" width="81.3723" height="80.2262" fill="#C8181A" fill-opacity="0.24"/>
<rect x="136.265" y="124.465" width="81.3723" height="82.5184" fill="#C8181A" fill-opacity="0.24"/>
<rect x="459.462" y="-35.9878" width="81.3723" height="80.2262" fill="#C8181A"/>
<rect x="217.637" y="286.063" width="80.2262" height="81.3723" fill="#C8181A" fill-opacity="0.24"/>
<rect x="1186.08" y="690.633" width="80.2262" height="80.2262" fill="#C8181A" fill-opacity="0.26"/>
<rect x="1266.31" y="770.859" width="80.2262" height="80.2262" fill="#C8181A" fill-opacity="0.26"/>
</g>
</g>
</g>
<defs>
<linearGradient id="paint0_linear_181_574" x1="230.586" y1="-19.5411" x2="685.067" y2="222.513" gradientUnits="userSpaceOnUse">
<stop stop-color="white"/>
<stop offset="1" stop-color="white" stop-opacity="0"/>
</linearGradient>
<radialGradient id="paint1_radial_181_574" cx="0" cy="0" r="1" gradientUnits="userSpaceOnUse" gradientTransform="translate(195.914 941.112) rotate(-29.3932) scale(777.019 1335.47)">
<stop stop-color="white"/>
<stop offset="1" stop-color="white" stop-opacity="0"/>
</radialGradient>
<clipPath id="clip0_181_574">
<rect width="1520" height="889" fill="white"/>
</clipPath>
</defs>
</svg>
